<svg xmlns="http://www.w3.org/2000/svg" xmlns:xlink="http://www.w3.org/1999/xlink" width="1080" zoomAndPan="magnify" viewBox="0 0 810 1439.999935" height="1920" preserveAspectRatio="xMidYMid meet" version="1.0"><path fill="#f7f7f7" d="M 405 234 C 240.972656 234 108 366.972656 108 531 C 108 679.371094 188.492188 850.582031 275.359375 990.308594 C 318.042969 1058.964844 360.804688 1117.742188 392.910156 1159.355469 C 397.136719 1164.832031 401.175781 1170.007812 405 1174.863281 C 408.824219 1170.007812 412.863281 1164.832031 417.089844 1159.355469 C 449.195312 1117.742188 491.957031 1058.964844 534.636719 990.308594 C 621.507812 850.582031 702 679.371094 702 531 C 702 366.972656 569.03125 234 405 234 Z M 405 1260 C 364.402344 1295.609375 364.398438 1295.601562 364.386719 1295.585938 L 364.285156 1295.472656 L 364.035156 1295.1875 L 363.167969 1294.1875 C 362.421875 1293.328125 361.355469 1292.09375 359.992188 1290.488281 C 357.253906 1287.285156 353.3125 1282.621094 348.335938 1276.617188 C 338.386719 1264.605469 324.28125 1247.195312 307.402344 1225.328125 C 273.691406 1181.628906 228.707031 1119.816406 183.640625 1047.332031 C 95.007812 904.773438 0 711.484375 0 531 C 0 307.324219 181.324219 126 405 126 C 628.671875 126 810 307.324219 810 531 C 810 711.484375 714.992188 904.773438 626.363281 1047.332031 C 581.292969 1119.816406 536.304688 1181.628906 502.597656 1225.328125 C 485.71875 1247.195312 471.613281 1264.605469 461.664062 1276.617188 C 456.6875 1282.621094 452.746094 1287.285156 450.007812 1290.488281 C 448.644531 1292.09375 447.578125 1293.328125 446.832031 1294.1875 L 445.964844 1295.1875 L 445.714844 1295.472656 L 445.640625 1295.558594 C 445.628906 1295.570312 445.597656 1295.609375 405 1260 Z M 405 1260 L 445.597656 1295.609375 C 435.34375 1307.296875 420.546875 1314 405 1314 C 389.453125 1314 374.640625 1307.277344 364.386719 1295.585938 Z M 405 1260 " fill-opacity="1" fill-rule="evenodd"/><path fill="#f7f7f7" d="M 405 423 C 345.351562 423 297 471.351562 297 531 C 297 590.648438 345.351562 639 405 639 C 464.648438 639 513 590.648438 513 531 C 513 471.351562 464.648438 423 405 423 Z M 189 531 C 189 411.707031 285.707031 315 405 315 C 524.292969 315 621 411.707031 621 531 C 621 650.292969 524.292969 747 405 747 C 285.707031 747 189 650.292969 189 531 Z M 189 531 " fill-opacity="1" fill-rule="evenodd"/></svg>