<svg xmlns="http://www.w3.org/2000/svg" xmlns:xlink="http://www.w3.org/1999/xlink" width="500" zoomAndPan="magnify" viewBox="0 0 375 374.999991" height="500" preserveAspectRatio="xMidYMid meet" version="1.0"><defs><g/><clipPath id="00f932cff1"><path d="M 107.550781 12.75 L 267.300781 12.75 L 267.300781 187.5 L 107.550781 187.5 Z M 107.550781 12.75 " clip-rule="nonzero"/></clipPath><clipPath id="1f5b12e188"><path d="M 154 273 L 221 273 L 221 289 L 154 289 Z M 154 273 " clip-rule="nonzero"/></clipPath><clipPath id="14062ea0ef"><path d="M 187.5 246.886719 L 221.4375 280.828125 L 187.5 314.769531 L 153.558594 280.828125 Z M 187.5 246.886719 " clip-rule="nonzero"/></clipPath><clipPath id="e1ab60b831"><path d="M 187.5 246.886719 L 221.4375 280.828125 L 187.5 314.769531 L 153.558594 280.828125 Z M 187.5 246.886719 " clip-rule="nonzero"/></clipPath></defs><g clip-path="url(#00f932cff1)"><path fill="#ffffff" d="M 265.820312 47.222656 L 239.835938 32.21875 C 240.324219 30.75 240.652344 29.210938 240.652344 27.582031 C 240.652344 19.417969 234.015625 12.777344 225.863281 12.777344 C 217.707031 12.777344 211.070312 19.417969 211.070312 27.582031 C 211.070312 35.746094 217.707031 42.386719 225.863281 42.386719 C 230.261719 42.386719 234.175781 40.414062 236.886719 37.351562 L 261.382812 51.5 L 261.382812 92.492188 L 225.882812 112.992188 L 190.390625 92.496094 L 190.390625 49.796875 C 190.390625 48.738281 189.828125 47.757812 188.910156 47.230469 L 150.453125 25.023438 C 149.535156 24.492188 148.414062 24.492188 147.496094 25.023438 L 109.035156 47.230469 C 108.121094 47.757812 107.558594 48.738281 107.558594 49.796875 L 107.558594 94.210938 C 107.558594 95.265625 108.121094 96.246094 109.035156 96.773438 L 146.007812 118.125 L 146.007812 162.304688 C 146.007812 163.363281 146.574219 164.339844 147.488281 164.867188 L 185.945312 187.074219 C 186.40625 187.339844 186.914062 187.472656 187.425781 187.472656 C 187.9375 187.472656 188.449219 187.339844 188.90625 187.074219 L 215.75 171.5625 C 218.398438 174.0625 221.945312 175.621094 225.863281 175.621094 C 234.015625 175.621094 240.652344 168.980469 240.652344 160.816406 C 240.652344 152.652344 234.015625 146.011719 225.863281 146.011719 C 217.707031 146.011719 211.070312 152.652344 211.070312 160.816406 C 211.070312 162.914062 211.519531 164.902344 212.308594 166.710938 L 187.425781 181.089844 L 151.925781 160.59375 L 151.925781 118.128906 L 187.433594 97.625 L 224.40625 118.972656 C 224.863281 119.238281 225.375 119.371094 225.882812 119.371094 C 226.394531 119.371094 226.90625 119.238281 227.363281 118.972656 L 265.820312 96.765625 C 266.738281 96.238281 267.300781 95.261719 267.300781 94.203125 L 267.300781 49.789062 C 267.300781 48.730469 266.738281 47.753906 265.820312 47.222656 Z M 225.863281 36.464844 C 220.96875 36.464844 216.988281 32.480469 216.988281 27.582031 C 216.988281 22.683594 220.96875 18.699219 225.863281 18.699219 C 230.753906 18.699219 234.738281 22.683594 234.738281 27.582031 C 234.738281 32.480469 230.753906 36.464844 225.863281 36.464844 Z M 225.863281 151.933594 C 230.753906 151.933594 234.738281 155.917969 234.738281 160.816406 C 234.738281 165.714844 230.753906 169.699219 225.863281 169.699219 C 220.96875 169.699219 216.988281 165.714844 216.988281 160.816406 C 216.988281 155.917969 220.96875 151.933594 225.863281 151.933594 Z M 184.472656 92.5 L 148.972656 113 L 113.472656 92.5 L 113.472656 51.503906 L 148.972656 31.003906 L 184.472656 51.503906 Z M 184.472656 92.5 " fill-opacity="1" fill-rule="nonzero"/></g><g fill="#ffffff" fill-opacity="1"><g transform="translate(3.515629, 249.696399)"><g><path d="M 6.6875 -46.828125 L 31.578125 -46.828125 L 40.140625 -38.265625 L 40.140625 0 L 33.453125 0 L 33.453125 -35.328125 L 28.640625 -40.140625 L 26.765625 -40.140625 L 26.765625 0 L 20.078125 0 L 20.078125 -40.140625 L 13.375 -40.140625 L 13.375 0 L 6.6875 0 Z M 6.6875 -46.828125 "/></g></g></g><g fill="#ffffff" fill-opacity="1"><g transform="translate(43.658216, 249.696399)"><g><path d="M 6.6875 -33.453125 L 40.140625 -33.453125 L 40.140625 -13.375 L 13.375 -13.375 L 13.375 -6.6875 L 40.140625 -6.6875 L 40.140625 0 L 6.6875 0 Z M 13.375 -26.765625 L 13.375 -20.078125 L 33.453125 -20.078125 L 33.453125 -26.765625 Z M 13.375 -26.765625 "/></g></g></g><g fill="#ffffff" fill-opacity="1"><g transform="translate(83.800803, 249.696399)"><g><path d="M 13.375 -46.828125 L 20.078125 -46.828125 L 20.078125 -33.453125 L 33.453125 -33.453125 L 33.453125 -26.765625 L 20.078125 -26.765625 L 20.078125 -6.6875 L 33.453125 -6.6875 L 33.453125 0 L 13.375 0 L 13.375 -26.765625 L 6.6875 -26.765625 L 6.6875 -33.453125 L 13.375 -33.453125 Z M 13.375 -46.828125 "/></g></g></g><g fill="#ffffff" fill-opacity="1"><g transform="translate(117.252958, 249.696399)"><g><path d="M 13.375 -13.375 L 13.375 -6.6875 L 33.453125 -6.6875 L 33.453125 -13.375 Z M 6.6875 -33.453125 L 40.140625 -33.453125 L 40.140625 0 L 6.6875 0 L 6.6875 -20.078125 L 33.453125 -20.078125 L 33.453125 -26.765625 L 6.6875 -26.765625 Z M 6.6875 -33.453125 "/></g></g></g><g fill="#ffffff" fill-opacity="1"><g transform="translate(157.395545, 249.696399)"><g/></g></g><g fill="#ffffff" fill-opacity="1"><g transform="translate(190.847699, 249.696399)"><g><path d="M 6.6875 -46.828125 L 13.375 -46.828125 L 13.375 -26.765625 L 33.453125 -26.765625 L 33.453125 -46.828125 L 40.140625 -46.828125 L 40.140625 0 L 33.453125 0 L 33.453125 -20.078125 L 13.375 -20.078125 L 13.375 0 L 6.6875 0 Z M 6.6875 -46.828125 "/></g></g></g><g fill="#ffffff" fill-opacity="1"><g transform="translate(230.990286, 249.696399)"><g><path d="M 6.6875 -33.453125 L 40.140625 -33.453125 L 40.140625 0 L 6.6875 0 Z M 13.375 -26.765625 L 13.375 -6.6875 L 33.453125 -6.6875 L 33.453125 -26.765625 Z M 13.375 -26.765625 "/></g></g></g><g fill="#ffffff" fill-opacity="1"><g transform="translate(271.132862, 249.696399)"><g><path d="M 13.375 -46.828125 L 20.078125 -46.828125 L 20.078125 -33.453125 L 33.453125 -33.453125 L 33.453125 -26.765625 L 20.078125 -26.765625 L 20.078125 -6.6875 L 33.453125 -6.6875 L 33.453125 0 L 13.375 0 L 13.375 -26.765625 L 6.6875 -26.765625 L 6.6875 -33.453125 L 13.375 -33.453125 Z M 13.375 -46.828125 "/></g></g></g><g fill="#ffffff" fill-opacity="1"><g transform="translate(304.585016, 249.696399)"><g><path d="M 6.6875 -33.453125 L 40.140625 -33.453125 L 40.140625 -13.375 L 13.375 -13.375 L 13.375 -6.6875 L 40.140625 -6.6875 L 40.140625 0 L 6.6875 0 Z M 13.375 -26.765625 L 13.375 -20.078125 L 33.453125 -20.078125 L 33.453125 -26.765625 Z M 13.375 -26.765625 "/></g></g></g><g fill="#ffffff" fill-opacity="1"><g transform="translate(344.727614, 249.696399)"><g><path d="M 6.6875 -46.828125 L 20.078125 -46.828125 L 20.078125 -6.6875 L 26.765625 -6.6875 L 26.765625 0 L 13.375 0 L 13.375 -40.140625 L 6.6875 -40.140625 Z M 6.6875 -46.828125 "/></g></g></g><g clip-path="url(#1f5b12e188)"><g clip-path="url(#14062ea0ef)"><g clip-path="url(#e1ab60b831)"><path fill="#ffffff" d="M 220.308594 279.695312 L 214.488281 273.878906 C 213.863281 273.253906 212.851562 273.253906 212.226562 273.878906 L 206.875 279.226562 L 168.121094 279.226562 L 162.769531 273.878906 C 162.144531 273.253906 161.132812 273.253906 160.507812 273.878906 L 154.6875 279.695312 C 154.0625 280.320312 154.0625 281.332031 154.6875 281.960938 L 160.507812 287.777344 C 161.132812 288.402344 162.144531 288.402344 162.769531 287.777344 L 168.121094 282.425781 L 206.875 282.429688 L 212.226562 287.777344 C 212.851562 288.402344 213.863281 288.402344 214.488281 287.777344 L 220.308594 281.960938 C 220.933594 281.335938 220.933594 280.320312 220.308594 279.695312 Z M 161.636719 284.382812 L 158.082031 280.828125 L 161.636719 277.273438 L 165.195312 280.828125 Z M 213.359375 284.382812 L 209.800781 280.828125 L 213.359375 277.273438 L 216.914062 280.828125 Z M 213.359375 284.382812 " fill-opacity="1" fill-rule="nonzero"/></g></g></g></svg>